<svg xmlns="http://www.w3.org/2000/svg" viewBox="0 0 1133.31 279.52"><defs><style>.cls-1,.cls-3{fill:#ff7d08;}.cls-2,.cls-4{fill:#004ba5;}.cls-3{stroke:#ff7d08;}.cls-3,.cls-4{stroke-miterlimit:10;}.cls-4{stroke:#004ba5;}</style></defs><g id="Livello_2" data-name="Livello 2"><g id="Livello_1-2" data-name="Livello 1"><path class="cls-1" d="M533.81,68.18l-6.63,2.18a31,31,0,0,0-10.06,5.3c-8.1,6.55-10,14.94-7.25,24.67,2.93,10.55,8.86,19.34,16.09,27.36,20.83,23.1,46.22,39.61,74.58,51.88a254.12,254.12,0,0,0,53.2,16.82c13.31,2.54,26.59,2.25,39.22-3.24,8.25-3.58,13.92-9.76,15.65-18.91.83-4.35-.11-8.56-1.6-12.65-1-2.58-2-5.13-3-7.72.59-.38.89.11,1.16.46,8.6,11.12,12.92,23.37,9.53,37.5-1.35,5.66-4.87,9.88-9.6,13.14-8.76,6-18.64,8.2-29.08,8.77-24.36,1.33-47.5-3.93-70.1-12.5-27.39-10.39-52.73-24.3-75.08-43.39-11-9.42-21.12-19.69-28.9-32-5.37-8.52-9.05-17.65-9.19-27.89-.15-11.15,5.4-18.91,14.87-24.17C515.71,69.27,524.5,67.72,533.81,68.18Z"></path><path class="cls-2" d="M624.88,272.4c-.9-.18-1.35-.91-1.86-1.56a306.85,306.85,0,0,1-19.51-28c-9.53-15.29-18.89-30.69-27-46.8-.33-.65-1.09-1.32-.41-2.05s1.38.07,2,.39c19.45,9.8,39.55,17.73,61.19,21.22A110.93,110.93,0,0,0,664,216.94c1.89-.11,2,.48,1.34,2a131.15,131.15,0,0,1-13,21c-8,10.89-16.8,21-25.66,31.17C626.2,271.66,625.75,272.34,624.88,272.4Z"></path><path class="cls-2" d="M710.59,70.63C704.47,32.69,670.5,1.11,629.89,0A93.84,93.84,0,0,0,609,1.6c-15.46,3.09-29.63,9.06-41.16,20-21.5,20.44-29.12,45.95-26,74.92,1.67,15.36,6.18,30.1,11.43,44.61a25,25,0,0,0,9.94,12.69,248.83,248.83,0,0,0,63.49,30.53c13.82,4.33,27.88,7.33,41.82,7.49,1.87,0,3.12,0,4.37,0s2.64-.16,3.95-.14a2.91,2.91,0,0,0,3.05-2c10.91-24.38,20.78-49.13,27.49-75C711.22,100.21,713,85.6,710.59,70.63Zm-83.84,67.31A57.25,57.25,0,0,1,569.58,80.7c0-31.84,25.68-57.27,57.82-57.25,31.63,0,56.81,25.74,56.79,58C684.17,112.59,658.39,137.94,626.75,137.94Z"></path><path class="cls-2" d="M652.23,79.39c2.67-1.73,4-1.47,6.13,1.08,1.33,1.59,1.23,3.37-.54,5.18-1.05,1.07-1.3,2-.49,3.29.48.75.84,1.59,1.28,2.38.65,1.18,1,2.29,3,1.46s3.34.9,4.39,2.42c1,1.36.6,2.61-.61,3.67-1.52,1.34-1.5,2.85-.47,4.47a15.05,15.05,0,0,0,1,1.6c2.93,3.42,2.16,6.9.24,10.42-1.39,2.55-2.36,2.73-4.37.66-5.72-5.86-11.39-11.77-17.11-17.64A106.27,106.27,0,0,0,633,88c-1-.74-1.38-.5-1.92.37-3.6,5.82-8.23,10.81-13,15.71a3,3,0,0,0-.52,4c2.19,4,4.17,8.14,6.36,12.15a3.89,3.89,0,0,1-.27,4.7c-2.84,4.24-3.43,3.49-6.15,0-2.44-3.1-5.23-5.93-7.85-8.9-2-2.24-2.19-2.34-4.39-.17-1.43,1.41-2.7,1.35-4.26.39a2.63,2.63,0,0,1-1.2-3.7c1.54-3.65,1.69-3.32-2.18-5-4-1.8-8.11-3.59-12.21-5.28-1.61-.66-1.91-1.42-1-3,2-3.52,4-4.42,7.92-3.29s8.2,1.38,12.29,2.11c1.38.25,2-.69,2.52-1.71a144.23,144.23,0,0,1,7.91-13.19,42,42,0,0,1,3-4c.94-1.06.84-1.54-.35-2.36-6.94-4.79-14.52-8.38-22.08-12-4.38-2.09-8.72-4.26-13-6.43-2.77-1.4-2.91-2.53-.57-4.62,1-.92,2.19-1.7,3.23-2.63a3.44,3.44,0,0,1,3.27-.78c2.31.48,4.63.88,6.94,1.38,1.24.28,2.23.07,2.78-1.14.66-1.46,1.55-2.56,3.32-2.17,2,.43,3.53,1.56,3.87,3.59.21,1.27.74,1.63,1.82,1.73a5.31,5.31,0,0,1,1.43.26c2.4.87,4,.37,4.95-2.25a2.46,2.46,0,0,1,4-1.07c1.61,1.16,4.19,1.84,3,4.86-.23.61.59.82,1.14.91,3.21.57,6.42,1.11,9.63,1.7A2.52,2.52,0,0,0,634.23,57c2.8-4,5.78-7.82,8.49-11.85,3.1-4.62,7.65-5.6,12.7-5.6A1.79,1.79,0,0,1,657.2,41c1.86,5.17,1.67,10-2,14.47-2.93,3.6-5.53,7.47-8.27,11.22-.47.63-.91,1.25-.45,2.08Z"></path><path class="cls-3" d="M107.18,269.19c.12,1.24-.58,1.86-2.09,1.86q-1.26,0-6.09-2.4a51.06,51.06,0,0,1-6.17-3.42q-15.45,10.54-36.6,10.54-24.67,0-40.62-18.55Q.5,239.69.5,214.46q0-25.8,14.86-43.35,15.69-18.56,40.87-18.55a54.07,54.07,0,0,1,24.89,6.11,49.92,49.92,0,0,1,19.1,16.74,5.17,5.17,0,0,1,1.09,2.45q0,1.19-6,7.8t-6.93,6.62c-.45,0-2.15-1.71-5.12-5.14A53.43,53.43,0,0,0,73,177.61a28.14,28.14,0,0,0-15.95-5.15q-15.85,0-26,13.33-9.23,12.14-9.23,28.67A45.67,45.67,0,0,0,31.3,243q10.33,13.4,25.94,13.41a50.34,50.34,0,0,0,28.2-8.44q-.16-2.28-1.42-16-1-9.78-1-15.94c0-1,.62-1.44,1.85-1.44,1.06,0,2.65.08,4.78.22s3.72.21,4.79.21,2.68-.06,4.86-.17,3.81-.17,4.87-.17,1.77.9,1.77,2.7c0,2-.08,4.93-.21,8.9s-.21,6.92-.21,8.89q0,12.15,1.59,32.89Z"></path><path class="cls-3" d="M142.1,172.46q0,10.38-11.5,10.37-11.67,0-11.66-10.37a9.6,9.6,0,0,1,3.6-7.67,12.67,12.67,0,0,1,16.16.08A9.59,9.59,0,0,1,142.1,172.46Zm-.59,22.86q0,6.5-.79,19.6t-.8,19.7q0,6.15.25,18.42t.25,18.35c0,1.18-.5,1.77-1.51,1.77H122.54c-1.17,0-1.76-1.15-1.76-3.46q0-5.82.3-17.5t.29-17.58q0-6.59-1-19.74t-1-19.73c0-1,.59-1.44,1.76-1.44a37.51,37.51,0,0,1,4.66.43,39.25,39.25,0,0,0,4.74.42,39.21,39.21,0,0,0,4.75-.42,37.4,37.4,0,0,1,4.74-.43C141,193.71,141.51,194.25,141.51,195.32Z"></path><path class="cls-4" d="M249,236.89q0,14.69-8.81,25.22a29.6,29.6,0,0,1-23.67,11.05q-5.37,0-16.16-.26t-16.16-.25q-3.94,0-11.87.34t-11.88.34c-1.4,0-2.1-.65-2.1-1.94q0-9.28.88-27.88t.88-27.87q0-9.78-.88-29.39t-.88-29.39q0-1.86,2.1-1.86,7.47,0,22.5.09t22.58.08q17.63,0,28.11,6.58,12.76,8,12.76,24.88a28.75,28.75,0,0,1-11.5,21.59c-1.62,1.07-2.43,1.77-2.43,2.11s.81.95,2.43,1.85a26.34,26.34,0,0,1,10.24,10.42A28.73,28.73,0,0,1,249,236.89Zm-23.58-48.41q0-11.88-10.58-16-6.37-2.44-20.9-2.45-14.1,0-14.1,2.11,0,2.79-.25,8.35c-.17,3.71-.25,6.53-.25,8.44,0,1.29,0,3.29.08,6s.08,4.73.08,6.08q0,2.44,19,2.44Q225.38,203.41,225.37,188.48Zm2.26,47.57q0-10.29-9.14-13.92-5.81-2.35-18.05-2.36-21.15,0-21.15,2.28v13.83q0,3,.16,9.28c.12,4.16.17,7.28.17,9.36q0,.84,5.37,1.26t15.95.43q13.26,0,19.06-3.46Q227.64,248.19,227.63,236.05Z"></path><path class="cls-4" d="M311.15,194.14A103.39,103.39,0,0,1,309.89,211c-.16,1.3-.72,1.94-1.68,1.94a53.33,53.33,0,0,1-5.33-.38c-2.37-.25-4.18-.38-5.41-.38q-10.58,0-13.51,6-1.77,3.63-1.77,15.1v9.27q0,4.72.38,14.34t.38,14.34c0,1.52-.64,2.28-1.93,2.28q-2.61,0-7.89-.09c-3.53-.06-6.16-.08-7.89-.08-1.29,0-1.93-.71-1.93-2.11q0-6.84.21-20.58t.21-20.66q0-20.83-3.86-33.48a4.22,4.22,0,0,1-.17-1,1.47,1.47,0,0,1,1.09-1.43q3.1-.33,8.73-1,9.06-1.69,8.39-1.69,1.35,0,1.77,5c.28,3.32.78,5,1.51,5a.77.77,0,0,0,.42-.17l6.88-4.38a30.93,30.93,0,0,1,7.72-3.37,28.8,28.8,0,0,1,8.4-1Q311.15,192.36,311.15,194.14Z"></path><path class="cls-4" d="M402,197a9.49,9.49,0,0,1-.25,1.52,203.77,203.77,0,0,0-3.27,33.31q0,.85,2.1,37.87l.08,1.18c.06,1.63-.69,2.45-2.23,2.45a66.45,66.45,0,0,0-7,.54,64.5,64.5,0,0,1-6.93.55c-1.06,0-1.87-2-2.43-5.9s-1.09-5.9-1.6-5.9q-.5,0-4.53,3.28a49.25,49.25,0,0,1-9.23,6.16,29,29,0,0,1-13.26,3.38q-16.29,0-27.45-13.08a43.64,43.64,0,0,1-10.58-29.09q0-18.74,10.66-31,11.16-12.73,29.38-12.74a31.78,31.78,0,0,1,22.41,8.94c.95,1.13,2.44,2.76,4.45,4.89a.73.73,0,0,0,.5.25q.51,0,1.43-5.31t2.35-5.31a52.1,52.1,0,0,1,8.48,1.26Q402,195.83,402,197Zm-21.4,35.25a27.08,27.08,0,0,0-6.13-17.79,20.31,20.31,0,0,0-16.53-8,21.08,21.08,0,0,0-16.79,7.93,26.7,26.7,0,0,0-6.47,17.87A26.3,26.3,0,0,0,341.12,250a21.18,21.18,0,0,0,16.79,7.84q9.81,0,16.45-8A26.7,26.7,0,0,0,380.57,232.25Z"></path><path class="cls-4" d="M488.09,217.5q0,11.88-.75,13.83-1.26,3.79-13.6,22.18-12.67,18.81-15.11,19.82-1.17.5-7.05.5a34.07,34.07,0,0,1-7.39-.5q-2.34-.76-15.36-19.06-12.68-17.81-14.18-21.68-2-5.31-2-16.44,0-3.47.17-10.38c.11-4.61.17-8.06.17-10.37a1.64,1.64,0,0,1,1.85-1.86c1.84,0,4.6.09,8.26.26s6.42.25,8.27.25c1,0,1.51.56,1.51,1.69,0,1.8-.11,4.45-.33,8s-.34,6.17-.34,8a109.69,109.69,0,0,0,.84,14.17q.42,3.19,8.52,15.68t10,12.48q1.85,0,9.15-12.23,7.22-12,7.72-15.09a105.88,105.88,0,0,0,.67-14.51c0-1.85-.18-4.64-.54-8.35s-.55-6.49-.55-8.35a1.11,1.11,0,0,1,1.26-1.26q2.77,0,8.14-.3t8.06-.29Q488.1,193.63,488.09,217.5Z"></path><path class="cls-4" d="M578.66,232.25q0,17.64-11.5,30.11a39.49,39.49,0,0,1-58.33.09q-11.5-12.4-11.5-30t11.5-30a39.85,39.85,0,0,1,58.25,0Q578.66,214.72,578.66,232.25Zm-17.71.17a25.85,25.85,0,0,0-6.3-17.54A20.89,20.89,0,0,0,538,207.21a21.24,21.24,0,0,0-16.71,7.59,27.57,27.57,0,0,0,.09,35.17,21.53,21.53,0,0,0,33.23,0A26.26,26.26,0,0,0,561,232.42Z"></path><path class="cls-4" d="M777.24,261.4c0,1.24-.11,2.92-.33,5.06-.28,2.64-.45,4.36-.51,5.14a6.55,6.55,0,0,1-.25,1.86,3.49,3.49,0,0,1-1.59,1.18q-6.88,3.28-21.66,3.29-19.64,0-19.64-17.88,0-7.17.33-21.55t.34-21.55a3.31,3.31,0,0,0-3.44-3.71q-3.11,0-6.13-.08-1.75-.42-1.76-6.92a42.39,42.39,0,0,1,.33-5.14c.17-1.35,1.07-2.17,2.69-2.45,1.4,0,2.77,0,4.11-.08,2.58-.12,3.86-1.27,3.86-3.46s-.07-5.68-.21-10.29-.2-8.07-.2-10.37q0-6.16,2.34-6.16.76,0,15.79,2.61c1.28.17,1.93.79,1.93,1.86,0,2.48-.19,6.19-.55,11.13s-.54,8.66-.54,11.14c0,1.63.75,2.44,2.26,2.44h20.15c1,0,1.42.34,1.42,1a29.2,29.2,0,0,1-.29,3.25,27.12,27.12,0,0,0-.29,3.33c0,.84,0,2.14.08,3.88s.08,3,.08,3.88c0,1.07-.78,1.6-2.35,1.6q-3.36,0-10.15-.46c-4.54-.31-7.92-.47-10.16-.47-.45,0-.78,1.61-1,4.81q-.42,6-.42,16.78v12.57q0,7.26,1.35,10.12,2,4.39,8.31,4.39a37.75,37.75,0,0,0,7.63-1.14,37.75,37.75,0,0,1,7.47-1.14C776.91,259.88,777.24,260.39,777.24,261.4Z"></path><path class="cls-4" d="M837.26,197.72A103.43,103.43,0,0,1,836,214.59c-.17,1.3-.73,1.94-1.68,1.94-1.18,0-3-.13-5.33-.38s-4.18-.38-5.42-.38q-10.58,0-13.51,6-1.75,3.63-1.76,15.1v9.27q0,4.73.38,14.34t.37,14.34c0,1.51-.64,2.27-1.93,2.27-1.73,0-4.36,0-7.89-.08s-6.15-.08-7.89-.08c-1.28,0-1.93-.71-1.93-2.11q0-6.84.21-20.58t.21-20.66q0-20.83-3.86-33.48a4.8,4.8,0,0,1-.17-1,1.48,1.48,0,0,1,1.09-1.43q3.11-.33,8.73-1,9.07-1.69,8.4-1.69,1.34,0,1.76,5c.28,3.32.78,5,1.51,5a.77.77,0,0,0,.42-.17l6.88-4.38a31.4,31.4,0,0,1,7.73-3.38,29.16,29.16,0,0,1,8.39-1C835.07,196,837.26,196.54,837.26,197.72Z"></path><path class="cls-4" d="M928.08,200.59a10.88,10.88,0,0,1-.25,1.52,202.8,202.8,0,0,0-3.28,33.31q0,.86,2.1,37.87l.08,1.18c.06,1.63-.68,2.45-2.22,2.45a66.59,66.59,0,0,0-7,.54,64.18,64.18,0,0,1-6.92.55c-1.06,0-1.88-2-2.43-5.9s-1.1-5.91-1.6-5.91q-.51,0-4.53,3.29a49,49,0,0,1-9.24,6.16A29,29,0,0,1,879.56,279q-16.27,0-27.45-13.07a43.63,43.63,0,0,1-10.57-29.09q0-18.74,10.66-31,11.16-12.72,29.38-12.73A31.78,31.78,0,0,1,904,202.11c1,1.13,2.43,2.75,4.45,4.89a.69.69,0,0,0,.5.25c.34,0,.81-1.77,1.43-5.31s1.4-5.31,2.35-5.31a52,52,0,0,1,8.47,1.26Q928.08,199.41,928.08,200.59Zm-21.41,35.25a27.07,27.07,0,0,0-6.12-17.79A20.32,20.32,0,0,0,884,210,21.13,21.13,0,0,0,867.22,218a26.73,26.73,0,0,0-6.46,17.88,26.24,26.24,0,0,0,6.46,17.71A21.22,21.22,0,0,0,884,261.4q9.82,0,16.45-8A26.7,26.7,0,0,0,906.67,235.84Z"></path><path class="cls-4" d="M1014.2,221.08q0,11.89-.76,13.84-1.26,3.79-13.6,22.18-12.68,18.81-15.11,19.82-1.17.49-7,.5a34,34,0,0,1-7.39-.5q-2.35-.76-15.36-19.06-12.68-17.81-14.19-21.68-2-5.31-2-16.44c0-2.31,0-5.77.17-10.38s.16-8.07.16-10.37a1.64,1.64,0,0,1,1.85-1.86c1.85,0,4.6.09,8.27.26s6.42.25,8.27.25c1,0,1.51.56,1.51,1.69,0,1.8-.12,4.45-.34,8s-.33,6.17-.33,8a109.52,109.52,0,0,0,.83,14.16q.42,3.21,8.52,15.69t10,12.48c1.22,0,4.28-4.07,9.14-12.23q7.23-12,7.73-15.09a107.56,107.56,0,0,0,.67-14.51c0-1.85-.18-4.64-.55-8.35s-.54-6.49-.54-8.35a1.11,1.11,0,0,1,1.26-1.26c1.84,0,4.56-.1,8.14-.3s6.26-.29,8.06-.29S1014.2,205.17,1014.2,221.08Z"></path><path class="cls-4" d="M1099.81,231.63q0,6.24-5.37,8.35-3.62,1.35-52,5,1.1,7.43,8.15,12.65a23.74,23.74,0,0,0,14.43,5,38.82,38.82,0,0,0,24.34-8.6l2.69-2.2a1.55,1.55,0,0,1,.88.17q.21.18,3.15,5.86a50.93,50.93,0,0,1,2.94,6.12c0,.34-.45,1-1.34,1.94Q1085.38,279,1066.07,279q-19.47,0-31.06-11.68t-11.58-31.16a45,45,0,0,1,11.08-30.28q11.67-13.41,28.62-13.41a34.15,34.15,0,0,1,26.36,11.64Q1099.81,215.44,1099.81,231.63Zm-20-5.15a16.94,16.94,0,0,0-5.5-12.4,17.28,17.28,0,0,0-12.38-5.39q-7.73,0-13.73,6.24a19.73,19.73,0,0,0-6,14c0,1.18,1,1.77,3,1.77a209.33,209.33,0,0,0,29.72-2.53C1078.21,227.72,1079.84,227.16,1079.84,226.48Z"></path><path class="cls-4" d="M1132.8,159.94l-.08,1.1q-1.85,31.36-1.85,53.89,0,10,.34,30.06t.33,30c0,1.29-.45,1.94-1.34,1.94h-16c-1,0-1.51-.65-1.51-1.94q0-10,.16-30t.17-30.06q0-9.1-.88-27.37t-.88-27.28c0-1.13.59-1.69,1.76-1.69,1,0,2.52.09,4.53.25s3.53.26,4.54.26,2.63-.09,4.7-.26,3.61-.25,4.61-.25S1132.86,159,1132.8,159.94Z"></path></g></g></svg>